<?xml version="1.0" standalone="yes"?>

<svg version="1.1" viewBox="0.0 0.0 100.0 100.0" fill="none" stroke="none" stroke-linecap="square" stroke-miterlimit="10" xmlns="http://www.w3.org/2000/svg" xmlns:xlink="http://www.w3.org/1999/xlink"><clipPath id="p.0"><path d="m0 0l100.0 0l0 100.0l-100.0 0l0 -100.0z" clip-rule="nonzero"></path></clipPath><g clip-path="url(#p.0)"><path fill="#000000" fill-opacity="0.0" d="m0 0l100.0 0l0 100.0l-100.0 0z" fill-rule="nonzero"></path><path fill="#000000" d="m0.78740156 50.0l0 0c0 -27.179367 22.033232 -49.212597 49.212597 -49.212597l0 0c13.051994 0 25.569412 5.1848836 34.79856 14.414037c9.2291565 9.229152 14.41404 21.746567 14.41404 34.79856l0 0c0 27.179367 -22.033234 49.2126 -49.2126 49.2126l0 0c-27.179367 0 -49.212597 -22.033234 -49.212597 -49.2126z" fill-rule="nonzero"></path><path stroke="#000000" stroke-width="1.0" stroke-linejoin="round" stroke-linecap="butt" d="m0.78740156 50.0l0 0c0 -27.179367 22.033232 -49.212597 49.212597 -49.212597l0 0c13.051994 0 25.569412 5.1848836 34.79856 14.414037c9.2291565 9.229152 14.41404 21.746567 14.41404 34.79856l0 0c0 27.179367 -22.033234 49.2126 -49.2126 49.2126l0 0c-27.179367 0 -49.212597 -22.033234 -49.212597 -49.2126z" fill-rule="nonzero"></path><path fill="#000000" fill-opacity="0.0" d="m0.78740156 -3.9186351l98.4252 0l0 98.42519l-98.4252 0z" fill-rule="nonzero"></path><path fill="#f9f9f9" d="m53.796875 61.427616q-2.03125 2.34375 -4.546875 3.7656288q-2.515625 1.421875 -5.046875 1.421875q-2.78125 0 -5.40625 -1.625q-2.625 -1.6250038 -4.265625 -5.000004q-1.640625 -3.375 -1.640625 -7.40625q0 -4.96875 2.546875 -9.953125q2.546875 -4.984375 6.328125 -7.484375q3.78125 -2.5 7.34375 -2.5q2.71875 0 5.1875 1.421875q2.46875 1.421875 4.25 4.328125l1.0625 -4.84375l5.59375 0l-4.5 20.96875q-0.9375 4.375 -0.9375 4.84375q0 0.84375 0.640625 1.453125q0.640625 0.609375 1.546875 0.609375q1.65625 0 4.34375 -1.90625q3.5625 -2.5 5.640625 -6.703125q2.078125 -4.203125 2.078125 -8.671875q0 -5.21875 -2.671875 -9.75q-2.671875 -4.531248 -7.96875 -7.249998q-5.296875 -2.71875 -11.703125 -2.71875q-7.3125 0 -13.359375 3.421875q-6.046875 3.421875 -9.375002 9.812498q-3.328125 6.390625 -3.328125 13.703125q0 7.65625 3.328125 13.187504q3.328127 5.53125 9.625002 8.171875q6.296875 2.640625 13.953125 2.640625q8.1875 0 13.71875 -2.75q5.53125 -2.75 8.28125 -6.6875l5.65625 0q-1.59375 3.28125 -5.46875 6.6875q-3.875 3.40625 -9.21875 5.390625q-5.34375 1.984375 -12.875 1.984375q-6.9375 0 -12.796875 -1.78125q-5.859375 -1.78125 -9.984377 -5.359375q-4.125 -3.578125 -6.21875 -8.234375q-2.625 -5.906254 -2.625 -12.750004q0 -7.625 3.125 -14.53125q3.8125 -8.468748 10.828127 -12.968748q7.015625 -4.5 17.015625 -4.5q7.75 0 13.921875 3.171875q6.171875 3.171875 9.734375 9.453123q3.03125 5.40625 3.03125 11.75q0 9.0625 -6.375 16.09375q-5.6875 6.312504 -12.4375 6.312504q-2.15625 0 -3.484375 -0.65625q-1.328125 -0.65625 -1.953125 -1.875q-0.40625 -0.7812538 -0.59375 -2.6875038zm-15.125 -8.46875q0 4.28125 2.03125 6.65625q2.03125 2.375 4.65625 2.375q1.75 0 3.6875 -1.046875q1.9375 -1.046875 3.703125 -3.109375q1.765625 -2.0625 2.890625 -5.234375q1.125 -3.171875 1.125 -6.359375q0 -4.25 -2.109375 -6.59375q-2.109375 -2.34375 -5.140625 -2.34375q-2.0 0 -3.765625 1.015625q-1.765625 1.015625 -3.421875 3.265625q-1.65625 2.25 -2.65625 5.46875q-1.0 3.21875 -1.0 5.90625z" fill-rule="nonzero"></path></g></svg>

