<?xml version="1.0" standalone="yes"?>

<svg version="1.1" viewBox="0.0 0.0 100.0 100.0" fill="none" stroke="none" stroke-linecap="square" stroke-miterlimit="10" xmlns="http://www.w3.org/2000/svg" xmlns:xlink="http://www.w3.org/1999/xlink"><clipPath id="p.0"><path d="m0 0l100.0 0l0 100.0l-100.0 0l0 -100.0z" clip-rule="nonzero"></path></clipPath><g clip-path="url(#p.0)"><path fill="#000000" fill-opacity="0.0" d="m0 0l100.0 0l0 100.0l-100.0 0z" fill-rule="nonzero"></path><path fill="#000000" d="m0.78740156 50.0l0 0c0 -27.179367 22.033232 -49.212597 49.212597 -49.212597l0 0c13.051994 0 25.569412 5.1848836 34.79856 14.414037c9.2291565 9.229152 14.41404 21.746567 14.41404 34.79856l0 0c0 27.179367 -22.033234 49.2126 -49.2126 49.2126l0 0c-27.179367 0 -49.212597 -22.033234 -49.212597 -49.2126z" fill-rule="nonzero"></path><path stroke="#000000" stroke-width="1.0" stroke-linejoin="round" stroke-linecap="butt" d="m0.78740156 50.0l0 0c0 -27.179367 22.033232 -49.212597 49.212597 -49.212597l0 0c13.051994 0 25.569412 5.1848836 34.79856 14.414037c9.2291565 9.229152 14.41404 21.746567 14.41404 34.79856l0 0c0 27.179367 -22.033234 49.2126 -49.2126 49.2126l0 0c-27.179367 0 -49.212597 -22.033234 -49.212597 -49.2126z" fill-rule="nonzero"></path><path fill="#000000" fill-opacity="0.0" d="m0.78740156 0.78740156l98.4252 0l0 98.4252l-98.4252 0z" fill-rule="nonzero"></path><path fill="#f9f9f9" d="m13.734373 56.508656l5.71875 -0.5q0.40625 3.4375 1.890625 5.640625q1.484375 2.203125 4.609375 3.5624962q3.125 1.359375 7.031252 1.359375q3.46875 0 6.125 -1.03125q2.65625 -1.03125 3.953125 -2.8281212q1.296875 -1.796875 1.296875 -3.921875q0 -2.15625 -1.25 -3.765625q-1.25 -1.609375 -4.125 -2.703125q-1.84375 -0.71875 -8.156252 -2.234375q-6.3125 -1.515625 -8.84375 -2.859375q-3.28125 -1.71875 -4.890625 -4.265625q-1.609375 -2.546875 -1.609375 -5.703125q0 -3.46875 1.96875 -6.484377q1.96875 -3.015625 5.75 -4.578125q3.78125 -1.5625 8.40625 -1.5625q5.093752 0 8.984377 1.640625q3.890625 1.640625 5.984375 4.828125q2.09375 3.187502 2.25 7.218752l-5.8125 0.4375q-0.46875 -4.34375 -3.171875 -6.5625q-2.703125 -2.218752 -7.984377 -2.218752q-5.5 0 -8.015625 2.015625q-2.515625 2.015627 -2.515625 4.859377q0 2.46875 1.78125 4.0625q1.75 1.59375 9.140627 3.265625q7.390625 1.671875 10.140625 2.921875q4.0 1.84375 5.90625 4.671875q1.90625 2.828125 1.90625 6.515625q0 3.65625 -2.09375 6.890621q-2.09375 3.234375 -6.015625 5.03125q-3.921875 1.796875 -8.828125 1.796875q-6.218752 0 -10.421877 -1.8125q-4.203125 -1.8125 -6.59375 -5.453125q-2.390625 -3.6406212 -2.515625 -8.234371zm44.5 14.718746l0 -45.8125l6.0625 0l0 40.40625l22.5625 0l0 5.40625l-28.625 0z" fill-rule="nonzero"></path></g></svg>

