<svg height="60" viewBox="0 0 60 60" width="60" xmlns="http://www.w3.org/2000/svg"><title/><g fill="none" fill-rule="evenodd"><path d="M30 60c16.569 0 30-13.431 30-30C60 13.431 46.569 0 30 0 13.431 0 0 13.431 0 30c0 16.569 13.431 30 30 30z" fill="#000"/><path d="M17.308 25.385c0 6.373 11.538 21.278 11.538 20.873 0-.404 11.539-14.5 11.539-20.873 0-6.373-5.17-11.539-11.539-11.539-6.37 0-11.538 5.166-11.538 11.539zm5.769-1.154a5.77 5.77 0 1 0 11.54-.002 5.77 5.77 0 0 0-11.54.002z" fill="#FFF"/></g></svg>