<svg viewBox="0.0 0.0 200.0 200.0" fill="none" stroke-linecap="square" stroke-miterlimit="10" xmlns="http://www.w3.org/2000/svg"><clipPath id="a"><path d="M0 0h200v200H0V0z"/></clipPath><g clip-path="url(#a)"><path d="M0 0h200v200H0z"/><path d="M38.85 109.234c0-33.772 27.378-61.15 61.15-61.15a61.15 61.15 0 0 1 61.15 61.15c0 33.772-27.378 61.15-61.15 61.15s-61.15-27.378-61.15-61.15z"/><path stroke="#6aa84f" stroke-linejoin="round" stroke-linecap="butt" d="M38.85 109.234c0-33.772 27.378-61.15 61.15-61.15a61.15 61.15 0 0 1 61.15 61.15c0 33.772-27.378 61.15-61.15 61.15s-61.15-27.378-61.15-61.15z"/><path d="M51.22 107.665l49.827 50.523 62.368-139.373"/><path stroke="#6aa84f" stroke-width="4" stroke-linejoin="round" stroke-linecap="butt" d="M51.22 107.665l49.827 50.523 62.368-139.373"/></g></svg>