<svg height="613.171" width="612.164" xmlns="http://www.w3.org/2000/svg"><path d="M82.432 17.924c-41.335 0-64.571 21.37-64.571 65.036v450.122c0 40.843 20.89 62.228 62.192 62.228h452.024c41.303 0 62.226-20.32 62.226-62.228V82.96c0-42.6-20.923-65.036-63.523-65.036 0 0-448.491-.142-448.348 0z" stroke="#fff" stroke-width="3.408"/><path d="M309.337 64.044c-22.379 2.504-103.754 39.698-106.129 231.479-2.5 202.025 83.75 244.525 106.37 244.067V406.154c-18.62 0-22.366-20.275-26.62-62.106-2.814-27.679-3.634-61.942 0-96 2.552-23.897 7-47.223 26.5-47.223l-.121-136.781zm48.246 475.781c8.625 0 14.811-7.027 14.811-14.902l.062-.062-.062-104.063c0-8.25-6.686-14.754-14.811-14.754h-37.799v133.781s37.707.058 37.738.027l.061-.027zm0-339c8.625 0 14.811-7.027 14.811-14.902l.062-.062-.062-107.063c0-8.25-6.686-14.754-14.811-14.754h-37.799v136.781s37.707.058 37.738.027l.061-.027z" fill="#fff"/></svg>