<svg height="24" viewBox="0 0 24 24" width="24" xmlns="http://www.w3.org/2000/svg"><path d="M2.91 12.84c1.342 0 2.434-1.091 2.434-2.434S4.252 7.973 2.91 7.973.476 9.064.476 10.407 1.567 12.84 2.91 12.84zm0-3.942a1.51 1.51 0 1 1-1.508 1.508A1.51 1.51 0 0 1 2.91 8.898zm9.553-.581c1.342 0 2.435-1.092 2.435-2.434s-1.093-2.434-2.435-2.434-2.433 1.092-2.433 2.434 1.091 2.434 2.433 2.434zm0-3.942a1.51 1.51 0 0 1 0 3.016 1.51 1.51 0 0 1-1.507-1.508 1.51 1.51 0 0 1 1.507-1.508zm8.768 3.388a2.437 2.437 0 0 0-2.435 2.434 2.437 2.437 0 0 0 2.435 2.434 2.438 2.438 0 0 0 2.435-2.434 2.437 2.437 0 0 0-2.435-2.434zm0 3.942a1.51 1.51 0 0 1-1.508-1.508 1.51 1.51 0 0 1 3.017 0 1.51 1.51 0 0 1-1.509 1.508z"/><path d="M21.351 12.823h-.694a2.29 2.29 0 0 0-1.39.475v-.385a.463.463 0 0 0-.463-.463h-1.936v-1.373c0-.823-.246-1.477-.73-1.944-.752-.723-1.799-.694-1.842-.69a.46.46 0 0 0-.307.132l-1.525 1.494-1.525-1.494a.462.462 0 0 0-.307-.132c-.044-.003-1.09-.033-1.842.69-.484.467-.73 1.121-.73 1.944v1.418H5.338a.463.463 0 0 0-.463.463v.472a2.297 2.297 0 0 0-1.389-.474h-.695a2.317 2.317 0 0 0-2.315 2.315v3.473a.463.463 0 1 0 .926 0v-3.473c0-.767.623-1.39 1.389-1.39h.695a1.39 1.39 0 0 1 1.389 1.39v.567H4.13a.463.463 0 1 0 0 .926h1.957a.488.488 0 0 1 0 .975H4.13a.463.463 0 0 0 0 .927h.745v1.63c0 .256.207.463.463.463h13.466a.463.463 0 0 0 .463-.463v-1.762h.743a.464.464 0 1 0 0-.927h-1.956a.488.488 0 0 1 0-.976h1.956a.462.462 0 1 0 0-.926h-.743v-.567c0-.767.622-1.39 1.39-1.39h.694c.766 0 1.39.623 1.39 1.39v3.473a.463.463 0 1 0 .926 0v-3.473a2.32 2.32 0 0 0-2.316-2.315zm-3.297 2.883c-.779 0-1.414.635-1.414 1.414s.635 1.415 1.414 1.415h.287v1.299H5.801v-1.167h.286a1.415 1.415 0 0 0 0-2.828h-.286v-.567c0-.15-.018-.295-.044-.437a.458.458 0 0 0 .044-.192v-1.222h2.316c.05.193.141.411.318.604.187.2.535.441 1.133.441h.866a.463.463 0 0 0 .463-.463v-1.279a.463.463 0 1 0-.926 0v.815h-.403c-.209 0-.361-.048-.45-.142-.107-.113-.132-.294-.134-.379l.002-.038v-1.904c0-.559.148-.986.441-1.271.326-.318.771-.405 1.006-.429l1.706 1.671a.464.464 0 0 0 .649 0l1.705-1.671c.236.024.681.111 1.007.429.293.285.44.713.44 1.271v1.904c0 .011 0 .023.002.034-.002.065-.017.257-.13.38-.091.096-.242.145-.454.145h-.525V12.8a.463.463 0 1 0-.926 0v1.203c0 .256.207.463.463.463h.988c.598 0 .946-.241 1.133-.441a1.43 1.43 0 0 0 .334-.648h1.515v1.717l.002.015-.002.03v.567h-.286z"/></svg>