<svg viewBox="0.0 0.0 200.0 200.0" fill="none" stroke-linecap="square" stroke-miterlimit="10" xmlns="http://www.w3.org/2000/svg"><clipPath id="a"><path d="M0 0h200v200H0V0z"/></clipPath><g clip-path="url(#a)"><path d="M0 0h200v200H0z"/><path d="M0 0h92.693v104.189H0z"/><path fill="#6aa84f" d="M44.022 94.05v-7.031q-5.265-.672-8.578-2.375-3.297-1.703-5.703-5.485-2.39-3.797-2.781-9.265l7.062-1.328q.828 5.671 2.89 8.328 2.97 3.75 7.11 4.172V58.69q-4.328-.829-8.86-3.36-3.359-1.875-5.187-5.187-1.812-3.328-1.812-7.547 0-7.5 5.312-12.156 3.563-3.125 10.547-3.829v-3.359h4.14v3.36q6.141.593 9.735 3.593 4.61 3.828 5.547 10.516l-7.266 1.094q-.625-4.141-2.609-6.344-1.969-2.219-5.406-2.922V52.83q5.312 1.328 7.031 2.063 3.281 1.453 5.344 3.531 2.078 2.062 3.187 4.922 1.125 2.844 1.125 6.156 0 7.313-4.656 12.203-4.64 4.875-12.031 5.235v7.109h-4.14zm0-61.578q-4.094.625-6.469 3.281-2.359 2.656-2.359 6.297 0 3.594 2.016 6.016 2.015 2.421 6.812 3.859V32.472zm4.14 48.594q4.11-.5 6.782-3.547 2.672-3.047 2.672-7.547 0-3.828-1.89-6.14-1.891-2.329-7.563-4.173v21.407z"/><path d="M62.37 81.882l118.457 102.425"/><path stroke="#000" stroke-width="8" stroke-linejoin="round" stroke-linecap="butt" d="M62.37 81.882l82.148 71.03"/><path fill="#000" stroke="#000" stroke-width="8" stroke-linecap="butt" d="M135.875 162.907l36.105 13.75-18.82-33.74z" fill-rule="evenodd"/></g></svg>