<svg xmlns="http://www.w3.org/2000/svg" viewBox="0 0 99.986488 100"><path d="M1.992 39.641l.503 11.614 16.813 11.79-.174-13.92zm36.46-13.284l11.745 4.249-31.079 18.561-17.116-9.541zm11.78 4.288l.004 7.117-30.928 25.224-.186-13.833" fill="#fff" stroke="#000" stroke-width="4.011" stroke-linejoin="round"/><path d="M96.4 46.193c0 14.492-12.42 26.24-27.741 26.24-15.322 0-27.742-11.748-27.742-26.24 0-14.492 12.42-26.24 27.742-26.24 15.32 0 27.74 11.748 27.74 26.24z" fill="#fff"/><path d="M68.659 76c-17.274 0-31.326-13.103-31.326-29.21 0-16.105 14.052-29.209 31.326-29.209s31.327 13.104 31.327 29.21S85.933 76 68.66 76zm0-52.346c-13.683 0-24.814 10.38-24.814 23.137S54.977 69.927 68.66 69.927c13.684 0 24.816-10.38 24.816-23.136 0-12.758-11.133-23.137-24.816-23.137z"/><path d="M84.017 52.761H62.785V34.05c0-2.016 1.754-3.651 3.916-3.651s3.917 1.635 3.917 3.651v11.41h13.4c2.161 0 3.915 1.636 3.915 3.652 0 2.015-1.754 3.65-3.916 3.65z"/></svg>