<svg xmlns="http://www.w3.org/2000/svg" viewBox="0 0 100 66.213"><g fill="#010101"><path d="M79.196.688l-6.944 6.944 1.214 1.215.003.001 15.757 15.757a5.388 5.388 0 0 0 3.829 1.587c1.447 0 2.81-.564 3.831-1.588L100 21.49 79.196.688zM75.521 40.84l-1.266-1.267-1.269-1.268-3.117-3.116a2.632 2.632 0 0 0-1.882-.78 2.63 2.63 0 0 0-1.88.78 2.66 2.66 0 0 0 0 3.76l3.117 3.118 1.269 1.268 1.267 1.268 1.95 1.947c.502.505 1.171.78 1.881.78.711 0 1.378-.276 1.881-.78a2.658 2.658 0 0 0 0-3.759l-1.951-1.951zm-6.294 6.297l-1.266-1.268-1.266-1.267-3.119-3.119a2.646 2.646 0 0 0-1.883-.779 2.661 2.661 0 0 0-1.879 4.539l3.119 3.119L64.2 49.63l1.267 1.267 1.951 1.948a2.644 2.644 0 0 0 1.88.779c.71 0 1.38-.274 1.882-.779a2.665 2.665 0 0 0 0-3.76l-1.953-1.948zm-4.344 8.242l-1.951-1.95-1.266-1.268-1.268-1.267-3.119-3.119c-.5-.5-1.17-.779-1.88-.779-.712 0-1.379.277-1.881.779a2.645 2.645 0 0 0-.778 1.881c0 .708.273 1.375.776 1.88h.002l3.118 3.119 1.268 1.267 1.266 1.267 1.951 1.951c.503.505 1.17.781 1.882.781.71 0 1.378-.276 1.88-.781.503-.502.78-1.17.78-1.88s-.277-1.376-.779-1.878c.002 0 .002 0-.001-.003zm-8.245 4.344l-1.266-1.267-1.266-1.265-3.119-3.121a2.661 2.661 0 0 0-1.882-.78 2.64 2.64 0 0 0-1.879.78 2.665 2.665 0 0 0 0 3.763l3.118 3.117 1.267 1.269 1.267 1.267 1.951 1.949a2.638 2.638 0 0 0 1.88.778c.713 0 1.381-.273 1.881-.778a2.666 2.666 0 0 0 0-3.761l-1.952-1.951z"/><path d="M66.948 14.399a8.389 8.389 0 0 1-5.976-2.476 4.845 4.845 0 0 0-3.444-1.425 4.839 4.839 0 0 0-3.444 1.426l-1.206 1.207 13.175 13.175a1.795 1.795 0 0 1-.006 2.542l-3.928 3.878a8.44 8.44 0 0 1-5.95 2.44 8.411 8.411 0 0 1-5.987-2.48l-5.551-5.549a4.093 4.093 0 0 0-2.916-1.208 4.16 4.16 0 0 0-2.414.786L26.445 39.568l-.002.002-2.536 2.537a2.66 2.66 0 1 0 3.762 3.76c.699-.7 1.833-.7 2.532 0 .351.35.526.807.526 1.265 0 .461-.175.919-.526 1.268a2.665 2.665 0 0 0 0 3.762 2.658 2.658 0 0 0 3.761 0 1.791 1.791 0 1 1 2.534 2.536c-.503.5-.779 1.17-.779 1.882 0 .71.276 1.378.779 1.88.503.5 1.17.778 1.881.778.71 0 1.377-.278 1.88-.778a1.793 1.793 0 0 1 2.535 2.532 2.665 2.665 0 0 0 0 3.763 2.636 2.636 0 0 0 1.879.779c.712 0 1.378-.276 1.883-.779l1.262-1.264-3.119-3.119a6.249 6.249 0 0 1 0-8.829 6.2 6.2 0 0 1 4.414-1.828l.054.002-.002-.055c0-1.668.648-3.237 1.826-4.414a6.218 6.218 0 0 1 4.415-1.828c.021 0 .037.003.059.003a6.206 6.206 0 0 1 1.822-4.469 6.191 6.191 0 0 1 4.413-1.828l.059.002a6.199 6.199 0 0 1 1.822-4.468 6.2 6.2 0 0 1 4.413-1.829c1.668 0 3.235.647 4.414 1.829l3.116 3.116 9.901-9.901-13.267-13.271a8.38 8.38 0 0 1-5.208 1.795z"/><path d="M36.241 24.619c.215-.216.446-.415.687-.602a7.747 7.747 0 0 1 4.175-1.641c.198-.016.396-.032.595-.032.602 0 1.189.075 1.761.208a7.647 7.647 0 0 1 3.701 2.049l5.551 5.551a4.853 4.853 0 0 0 3.453 1.432c1.291 0 2.511-.5 3.431-1.409l2.645-2.613-11.897-11.897-1.268-1.266-1.267-1.268-1.894-1.895a4.835 4.835 0 0 0-3.442-1.427 4.835 4.835 0 0 0-3.444 1.427 8.397 8.397 0 0 1-5.977 2.475 8.382 8.382 0 0 1-5.208-1.793L14.578 25.182 25.164 35.77l11.077-11.151zM26.534 8.161l1.216-1.217L20.806 0 0 20.804l3.114 3.114a5.386 5.386 0 0 0 3.83 1.586c1.447 0 2.81-.562 3.83-1.584L26.531 8.162l.003-.001z"/></g></svg>